# xmcd
#
# Track frame offsets:
#  150
#  75735
#  113678
#  185120
#  211996
#
# Disc length: 3456 seconds
#
# Revision: 0
# Processed by: cddbd v1.5.1PL2 Copyright (c) Steve Scherf et al.
# Submitted via: Collectorz.com Music Collector 6.9
#
DISCID=3e0d7e05
DTITLE=Krivtsov, Vladimir - Music for symphonic orchestra
DYEAR=1900
DGENRE=Classical
TTITLE0=Poema "Chelovek"
TTITLE1=Symphony N1 - Introduzione - I Concertato
TTITLE2=II Intermezzo - III Variazioni (attaca)
TTITLE3=IV Finale con inverso
TTITLE4="Horovod druzhby" - fantasia for symphonic orchestra
EXTD=
EXTT0=
EXTT1=
EXTT2=
EXTT3=
EXTT4=
PLAYORDER=
